<svg xmlns="http://www.w3.org/2000/svg" width="389.372" height="292.86" viewBox="0 0 389.372 292.86">
  <g id="Group_6" data-name="Group 6" transform="translate(-1144.687 -189.628)">
    <path id="Path_1" data-name="Path 1" d="M14.731,63.813l114.751,53.7L169.656,38.37l-26.9-12.66L55.209-13.608" 
    transform="translate(1277.61 193.415) rotate(42)" fill="none" stroke="#414141" stroke-linecap="round" stroke-linejoin="round" stroke-width="10"/>
    <path id="Path_2" data-name="Path 2" d="M-.313.639l87.96,33.572L147.27,56.968l-47.023,30.77L88.618,34.692l11.629,53.046L32.985,132.8" 
    transform="translate(1147.5 310.765)" fill="none" stroke="#414141" stroke-linecap="round" stroke-linejoin="round" stroke-width="10"/>
    <path id="Path_3" data-name="Path 3" d="M-.313.639l87.96,33.572L147.27,56.968l-47.023,30.77L88.618,34.692l11.629,53.046L32.985,132.8" 
    transform="translate(1530.99 368.89) rotate(171)" fill="none" stroke="#414141" stroke-linecap="round" stroke-linejoin="round" stroke-width="10"/>
    <path id="Path_4" data-name="Path 4" d="M0,8.078l8.665,113.8L93.47,106.447h0L49-.251l44.468,106.7h0l52.7-9.69L113.153,35.1,87.986-11.9" 
    transform="translate(1291.828 358.975) rotate(-8)" fill="none" stroke="#414141" stroke-linecap="round" stroke-linejoin="round" stroke-width="10"/>
  </g>
</svg>
