<?xml version="1.0" standalone="no"?>
<!DOCTYPE svg PUBLIC "-//W3C//DTD SVG 20010904//EN"
 "http://www.w3.org/TR/2001/REC-SVG-20010904/DTD/svg10.dtd">
<svg version="1.0" xmlns="http://www.w3.org/2000/svg"
 width="790.000000pt" height="790.000000pt" viewBox="0 0 790.000000 790.000000"
 preserveAspectRatio="xMidYMid meet">
<metadata>
Created by potrace 1.11, written by Peter Selinger 2001-2013
</metadata>
<g transform="translate(0.000000,790.000000) scale(0.100000,-0.100000)"
fill="#000000" stroke="none">
<path d="M3662 6340 c-30 -19 -54 -66 -47 -97 2 -10 13 -40 25 -68 89 -202
317 -720 337 -765 37 -81 43 -95 153 -345 56 -126 107 -243 114 -260 63 -139
89 -199 90 -205 1 -3 13 -30 27 -60 14 -30 36 -82 50 -115 13 -33 28 -63 32
-66 5 -3 8 -10 8 -15 -1 -8 77 -204 123 -309 l13 -29 -246 -94 c-135 -51 -259
-99 -276 -106 -16 -7 -46 -19 -65 -26 -19 -6 -44 -16 -55 -21 -11 -4 -92 -36
-180 -69 -202 -78 -347 -134 -454 -177 -47 -18 -90 -33 -95 -33 -6 0 -22 -6
-36 -13 -64 -33 -58 -38 -116 98 -7 17 -19 46 -28 65 -8 19 -71 170 -141 335
-69 165 -132 314 -139 330 -8 17 -51 118 -96 225 -112 268 -129 307 -156 368
-13 29 -24 55 -24 58 0 3 -9 25 -20 50 -19 41 -41 92 -45 104 -3 9 -22 54 -48
112 -14 31 -23 59 -19 62 3 3 0 6 -6 6 -7 0 -12 7 -12 15 0 8 -4 23 -9 33 -6
9 -29 62 -52 117 -117 278 -116 277 -164 295 -77 29 -150 -50 -120 -131 39
-106 51 -134 58 -137 4 -2 7 -8 7 -13 0 -5 21 -60 47 -122 26 -62 47 -115 45
-119 -1 -5 2 -8 8 -8 6 0 9 -3 8 -7 -1 -5 6 -25 15 -47 9 -21 17 -40 17 -42 0
-2 11 -27 24 -56 13 -29 46 -107 74 -173 28 -66 85 -200 126 -298 42 -98 76
-180 76 -182 0 -3 11 -28 24 -57 13 -29 54 -125 91 -213 37 -88 73 -173 81
-190 11 -24 172 -406 191 -453 4 -8 -1 -10 -13 -6 -34 12 -338 126 -359 134
-37 16 -260 102 -285 110 -14 5 -79 29 -145 55 -66 25 -192 73 -280 106 -88
33 -170 64 -182 70 -13 5 -33 13 -45 18 -22 9 -236 91 -558 212 -85 33 -162
62 -170 66 -8 3 -17 7 -20 7 -3 1 -39 14 -80 30 -41 16 -115 44 -165 63 -49
19 -99 38 -110 43 -107 46 -347 130 -372 130 -38 0 -93 -50 -93 -84 0 -37 19
-80 41 -94 12 -8 98 -43 193 -78 94 -36 178 -68 186 -71 8 -3 17 -7 20 -8 3
-1 19 -7 35 -14 17 -6 53 -20 80 -31 28 -10 91 -34 140 -53 50 -19 113 -42
140 -52 28 -10 56 -23 63 -28 6 -5 12 -6 12 -3 0 4 12 1 27 -8 16 -8 42 -19
58 -25 44 -15 420 -158 490 -186 33 -13 105 -40 160 -60 161 -60 158 -56 170
-165 1 -8 4 -24 8 -35 3 -11 8 -31 11 -45 3 -14 14 -65 26 -115 11 -49 22 -99
24 -110 2 -11 17 -85 35 -165 18 -80 41 -185 52 -235 11 -49 22 -100 24 -112
4 -16 -3 -26 -28 -41 -17 -12 -64 -42 -103 -69 -39 -26 -79 -52 -87 -58 -83
-52 -343 -231 -345 -237 -2 -4 -7 -8 -12 -8 -4 0 -129 -81 -276 -180 -148 -99
-277 -186 -288 -193 -10 -6 -36 -24 -57 -40 -21 -15 -43 -27 -49 -27 -5 0 -10
-4 -10 -9 0 -5 -9 -13 -20 -16 -26 -8 -57 -72 -52 -107 6 -51 61 -87 121 -78
15 2 122 67 131 80 3 4 10 9 16 11 5 2 157 103 337 224 180 121 335 225 345
230 9 6 19 13 22 16 3 3 16 12 29 19 14 7 30 17 35 22 29 24 337 228 345 228
5 0 11 4 13 8 4 12 125 92 137 92 6 0 11 4 11 8 0 5 12 15 28 23 15 8 29 16
32 19 5 5 349 232 387 255 9 6 66 43 125 83 60 39 111 72 114 72 3 0 17 9 31
20 15 11 27 19 29 17 3 -2 38 -153 50 -212 2 -11 6 -31 9 -45 3 -14 7 -35 10
-48 2 -13 7 -32 10 -42 3 -10 8 -29 10 -42 3 -13 10 -48 16 -78 6 -30 12 -59
13 -65 1 -5 5 -19 9 -30 3 -11 8 -36 11 -55 3 -19 17 -82 31 -140 14 -58 27
-116 30 -130 5 -33 22 -109 30 -140 3 -14 8 -34 9 -45 2 -11 16 -74 30 -140
29 -127 33 -145 41 -185 3 -14 8 -36 11 -50 3 -14 7 -34 9 -45 2 -11 7 -31 10
-45 4 -14 8 -34 10 -46 1 -11 11 -54 20 -95 19 -81 33 -144 65 -291 41 -185
53 -188 345 -90 121 40 225 75 230 76 6 2 17 6 25 9 27 10 665 221 675 223 6
1 127 41 270 89 143 48 265 88 270 89 6 2 17 6 25 9 14 5 89 30 100 32 3 1 12
4 20 7 22 9 203 70 215 73 6 1 17 5 25 8 26 10 294 99 305 101 6 1 42 13 80
26 39 13 72 25 75 25 3 1 12 4 20 8 8 3 45 15 81 27 76 24 98 43 105 91 8 48
-1 64 -131 239 -152 205 -139 188 -211 287 -35 49 -67 93 -71 98 -5 6 -33 44
-63 85 -30 41 -58 77 -62 78 -5 2 -8 8 -8 13 0 8 -39 63 -88 124 -5 6 -17 24
-28 40 -10 17 -21 32 -24 35 -11 11 -180 240 -180 245 0 2 -7 13 -15 22 -13
16 -181 243 -219 298 -8 11 -53 73 -101 137 -76 104 -96 138 -73 131 4 -2 42
-10 85 -19 43 -9 85 -17 93 -19 74 -16 161 -35 183 -39 15 -2 35 -7 45 -10 9
-3 33 -7 52 -10 19 -3 50 -10 68 -15 17 -5 32 -8 32 -6 0 3 10 1 23 -4 13 -5
40 -12 60 -15 20 -3 56 -10 79 -15 24 -6 57 -12 73 -15 17 -3 41 -8 55 -11 57
-13 114 -25 280 -60 96 -20 184 -39 195 -41 22 -5 155 -32 195 -40 14 -3 45
-10 70 -15 25 -6 54 -13 65 -15 42 -8 61 -12 85 -18 14 -3 36 -8 50 -10 26 -5
55 -11 105 -22 17 -4 39 -8 50 -10 11 -2 49 -9 85 -18 87 -19 200 -44 230 -50
24 -4 168 -34 200 -41 8 -2 60 -13 115 -25 88 -18 133 -27 224 -45 28 -5 77
18 91 44 25 48 15 109 -23 134 -19 12 -121 40 -197 53 -22 4 -111 22 -180 38
-38 9 -123 26 -156 32 -16 3 -49 10 -74 16 -25 6 -54 11 -65 13 -11 1 -38 8
-59 13 -22 6 -43 9 -48 6 -4 -3 -8 0 -8 6 0 6 -4 9 -9 6 -4 -3 -23 -1 -41 4
-18 5 -51 12 -74 16 -22 3 -43 7 -47 9 -3 2 -19 6 -35 9 -37 7 -103 20 -224
46 -52 11 -138 29 -190 40 -52 11 -111 24 -130 28 -19 5 -37 9 -40 9 -36 6
-91 16 -115 24 -16 4 -43 11 -60 14 -100 18 -99 18 -122 75 -32 84 -36 94
-101 260 -84 216 -148 380 -163 415 -7 17 -13 33 -14 38 -2 4 -4 9 -5 12 -1 3
-3 8 -5 13 -1 4 -7 20 -13 35 -28 68 -27 74 24 121 27 24 65 59 85 77 20 19
87 81 149 139 63 58 128 119 146 135 56 53 237 221 292 271 30 27 77 71 105
98 29 26 97 89 151 140 187 171 186 171 186 219 0 32 -6 49 -22 65 -60 55
-107 45 -200 -43 -35 -33 -110 -103 -167 -155 -56 -52 -124 -115 -150 -140
-27 -25 -94 -88 -151 -140 -148 -137 -156 -144 -281 -261 -63 -58 -126 -117
-140 -130 -15 -13 -63 -58 -108 -99 -46 -41 -101 -93 -125 -115 -23 -22 -80
-74 -125 -115 -91 -82 -102 -92 -217 -197 -44 -39 -88 -80 -100 -90 -11 -10
-60 -54 -109 -98 -48 -44 -103 -95 -123 -113 -20 -17 -39 -29 -43 -25 -4 5
-22 44 -40 88 -18 44 -36 84 -41 89 -4 6 -8 16 -8 23 0 7 -12 38 -26 70 -15
32 -32 72 -39 88 -35 81 -80 186 -102 235 -14 30 -81 183 -150 340 -69 157
-135 305 -146 330 -12 25 -22 47 -22 50 -1 3 -11 25 -22 50 -11 25 -39 88 -62
140 -23 52 -46 104 -51 115 -5 11 -61 136 -123 278 -63 142 -123 269 -134 282
-25 32 -81 39 -121 15z m2042 -2370 c30 -74 52 -138 49 -142 -2 -4 -14 -3 -27
2 -13 5 -43 12 -67 15 -24 4 -47 8 -50 11 -4 2 -24 6 -45 10 -22 3 -55 9 -74
14 -19 5 -51 12 -70 15 -19 3 -62 12 -95 20 -33 7 -116 25 -185 40 -69 14
-149 31 -179 37 l-53 12 59 55 c33 31 92 85 132 121 40 36 92 83 116 105 23
22 78 72 121 110 43 39 94 84 114 102 l35 31 83 -211 c45 -117 107 -273 136
-347z m-900 -315 c65 -88 126 -171 136 -185 10 -14 106 -145 212 -291 176
-241 222 -303 246 -334 4 -5 29 -41 56 -80 27 -38 59 -82 70 -96 12 -15 30
-39 41 -55 11 -15 30 -40 43 -55 12 -15 22 -31 22 -37 0 -6 4 -12 8 -14 4 -1
37 -43 72 -93 36 -49 70 -97 77 -105 7 -8 57 -76 112 -151 l99 -137 -41 -15
c-58 -21 -708 -238 -727 -242 -8 -2 -21 -5 -29 -7 -8 -1 -25 17 -41 42 -25 43
-266 448 -306 517 -11 17 -73 123 -139 234 -66 111 -131 221 -144 243 -72 125
-197 336 -216 366 -49 78 -85 141 -85 150 0 6 -4 10 -10 10 -5 0 -10 6 -10 14
0 7 -7 19 -15 26 -8 7 -13 16 -10 20 2 4 -4 15 -15 25 -11 10 -20 22 -20 28 0
5 -20 42 -45 81 -25 40 -45 77 -45 82 0 5 44 26 98 46 53 20 156 60 227 88 72
28 135 52 140 54 13 4 64 24 90 35 11 5 23 6 26 2 4 -3 59 -78 123 -166z
m-2689 -100 c167 -62 232 -87 255 -97 14 -7 27 -12 30 -13 3 -1 12 -4 20 -8 8
-3 101 -38 205 -77 105 -40 194 -74 198 -77 5 -3 -29 -29 -75 -59 -46 -30 -90
-58 -98 -64 -139 -95 -449 -293 -460 -294 -8 -1 -15 4 -15 9 -1 10 -35 161
-60 270 -8 33 -17 78 -21 100 -3 22 -8 43 -10 46 -3 6 -64 287 -64 297 0 2 8
1 18 -3 9 -4 44 -17 77 -30z m1825 -88 c0 -4 8 -20 19 -35 19 -28 91 -149 301
-507 68 -115 148 -250 178 -299 30 -49 62 -103 72 -120 26 -47 55 -96 170
-290 58 -97 113 -191 124 -209 10 -18 57 -96 103 -175 47 -79 84 -145 82 -146
-2 -2 -164 -56 -359 -120 -195 -65 -362 -120 -370 -123 -8 -3 -19 -7 -25 -9
-5 -1 -154 -50 -329 -108 -176 -58 -322 -103 -325 -101 -3 3 -6 11 -7 18 -7
38 -13 70 -19 88 -4 12 -8 31 -10 42 -1 12 -8 45 -15 72 -14 60 -19 81 -26
120 -3 17 -11 55 -19 85 -7 30 -16 69 -18 85 -3 17 -10 53 -17 80 -6 28 -14
61 -16 75 -3 14 -9 41 -14 60 -5 19 -11 46 -14 60 -10 50 -20 95 -57 260 -26
120 -70 320 -76 350 -3 14 -6 30 -7 35 -12 47 -18 75 -41 180 -15 66 -29 131
-31 145 -2 14 -11 57 -20 95 -9 39 -18 79 -20 90 -2 11 -6 31 -9 45 -5 25 -1
28 97 64 57 22 121 45 143 53 22 8 54 20 70 28 17 7 64 25 105 40 41 15 84 31
95 36 11 5 70 29 130 53 l110 44 22 -27 c13 -14 23 -30 23 -34z"/>
</g>
</svg>
